# xmcd
#
# Track frame offsets:
# 150
# 10942
# 21732
# 41897
# 54530
# 67697
# 80537
# 98232
# 116847
# 131720
# 144870
# 157925
# 169717
# 182065
# 197120
# 211465
#
# Disc length: 2966 seconds
#
#
# Revision: 0
# Processed by: cddbd v1.5.1PL0 Copyright (c) Steve Scherf et al.
# Submitted via: FreeRIP 2.941 
#
DISCID=e00b9410
DTITLE=Forró do Karoá - Vem Dançar Com  O Karoá
DYEAR=2003
DGENRE=Forró
TTITLE0=Na Bahia Tem
TTITLE1=Minha Pequena
TTITLE2=Te Amo De Verdade
TTITLE3=Pra Ela
TTITLE4=Bateu Meu Coração
TTITLE5=Tome Forró
TTITLE6=Vem Dançar Com o Karoá
TTITLE7=Rei do Baião
TTITLE8=Meu Desejo
TTITLE9=Quero Quero
TTITLE10=Só De Brincadeira
TTITLE11=Deixa O Corpo Balançar
TTITLE12=Falte De Você
TTITLE13=Teu Cheiro
TTITLE14=Apareça
TTITLE15=Fole Da Gota
EXTD=
EXTT0=
EXTT1=
EXTT2=
EXTT3=
EXTT4=
EXTT5=
EXTT6=
EXTT7=
EXTT8=
EXTT9=
EXTT10=
EXTT11=
EXTT12=
EXTT13=
EXTT14=
EXTT15=
PLAYORDER=
